<?xml version="1.0" encoding="UTF-8" standalone="no"?>
<!-- Created with Inkscape (http://www.inkscape.org/) -->

<svg
   width="512"
   height="256"
   viewBox="0 0 135.46667 67.733333"
   version="1.1"
   id="svg1"
   inkscape:export-filename="bitmap.png"
   inkscape:export-xdpi="96"
   inkscape:export-ydpi="96"
   inkscape:version="1.3.2 (091e20ef0f, 2023-11-25)"
   sodipodi:docname="lakowordmarkv2_l.svg"
   xml:space="preserve"
   xmlns:inkscape="http://www.inkscape.org/namespaces/inkscape"
   xmlns:sodipodi="http://sodipodi.sourceforge.net/DTD/sodipodi-0.dtd"
   xmlns="http://www.w3.org/2000/svg"
   xmlns:svg="http://www.w3.org/2000/svg"><sodipodi:namedview
     id="namedview1"
     pagecolor="#ffffff"
     bordercolor="#000000"
     borderopacity="0.25"
     inkscape:showpageshadow="2"
     inkscape:pageopacity="0.0"
     inkscape:pagecheckerboard="0"
     inkscape:deskcolor="#d1d1d1"
     inkscape:document-units="mm"
     inkscape:export-bgcolor="#b3d9ffff"
     inkscape:zoom="1.4142136"
     inkscape:cx="185.26197"
     inkscape:cy="112.78353"
     inkscape:window-width="1920"
     inkscape:window-height="1011"
     inkscape:window-x="0"
     inkscape:window-y="0"
     inkscape:window-maximized="1"
     inkscape:current-layer="g1" /><defs
     id="defs1"><rect
       x="715.24512"
       y="162.63232"
       width="1613.7588"
       height="841.08838"
       id="rect2" /><rect
       x="893.50488"
       y="289.32654"
       width="1154.4951"
       height="623.04419"
       id="rect1" /></defs><g
     inkscape:label="Layer 1"
     inkscape:groupmode="layer"
     id="layer1"><g
       id="g4"><g
         id="g5"><g
           id="g7"
           transform="translate(0,3.6338613)"
           style="fill:none;fill-opacity:1;stroke:#000000;stroke-opacity:1"><g
             id="g9"
             transform="translate(-24.703482)"><g
               id="g1"
               transform="matrix(0.24560528,0,0,0.24560528,19.913995,-2.1460276)"><path
                 d="m 746.04609,289.11977 h 47.88 v 326.2 h 145.32 v 43.4 h -193.2 z m 465.15991,369.6 v -44.8 q -2.24,7 -13.16,19.32 -10.64,12.32 -29.4,22.4 -18.48,9.8 -43.68,9.8 -31.92,0 -57.96,-15.12 -25.76,-15.12 -41.16,-42.28 -15.12,-27.44 -15.12,-64.12 0,-36.68 15.12,-63.84 15.4,-27.44 41.16,-42.56 26.04,-15.4 57.96,-15.4 24.92,0 43.12,8.96 18.48,8.96 29.4,20.72 11.2,11.76 13.16,20.16 v -43.12 h 48.16 v 229.88 z m -152.32,-114.8 q 0,24.92 10.92,43.12 10.92,18.2 28.28,28.28 17.64,9.8 37.52,9.8 21.28,0 38.08,-10.08 16.8,-10.08 26.6,-28.28 9.8,-18.48 9.8,-42.84 0,-24.36 -9.8,-42.56 -9.8,-18.48 -26.6,-28.56 -16.8,-10.36 -38.08,-10.36 -19.88,0 -37.52,10.08 -17.36,10.08 -28.28,28.28 -10.92,18.2 -10.92,43.12 z m 430.72,-115.08 h 58.8 l -118.72,109.48 126.56,120.4 h -59.64 l -106.68,-101.92 v 101.92 h -48.72 v -385.28 h 48.72 v 246.4 z m 220.7198,236.6 q -35.56,0 -63.28,-15.96 -27.44,-15.96 -43.12,-43.12 -15.68,-27.44 -15.68,-61.88 0,-34.44 15.68,-62.16 15.68,-27.72 43.12,-43.96 27.72,-16.24 63.28,-16.24 35.28,0 62.44,16.24 27.44,16.24 42.84,43.96 15.4,27.72 15.4,62.16 0,34.44 -15.4,61.88 -15.4,27.16 -42.84,43.12 -27.16,15.96 -62.44,15.96 z m 0,-41.72 q 22.4,0 38.92,-10.36 16.8,-10.36 26.04,-28.28 9.24,-18.2 9.24,-40.88 0,-22.68 -9.24,-40.88 -9.24,-18.2 -26.04,-28.84 -16.52,-10.64 -38.92,-10.64 -22.68,0 -39.48,10.64 -16.8,10.64 -26.32,28.84 -9.24,18.2 -9.24,40.88 0,22.68 9.24,40.88 9.52,17.92 26.32,28.28 16.8,10.36 39.48,10.36 z"
                 id="text2"
                 style="font-size:560px;font-family:'League Spartan';-inkscape-font-specification:'League Spartan';letter-spacing:25px;white-space:pre;fill:#000000;stroke-width:50;stroke-linecap:round;stroke-linejoin:round"
                 transform="matrix(0.26458333,0,0,0.26458333,30.669808,7.626868)"
                 aria-label="Lako" /><g
                 id="g23"
                 transform="matrix(0.94245882,0,0,0.94245882,1.5597099,22.058566)"
                 style="fill:none;fill-opacity:1;stroke:#000000;stroke-opacity:1"><path
                   id="path5-7"
                   style="fill:none;fill-opacity:1;stroke:#000000;stroke-width:16.8442;stroke-linecap:round;stroke-linejoin:round;stroke-dasharray:none;stroke-opacity:1"
                   d="M 191.13802,71.017348 V 22.836136 M 79.795316,71.017347 V 22.836135 M 135.47351,28.57125 C 107.64013,28.084765 79.804449,41.747001 79.795317,71.017348 V 177.97096 l 11.414852,17.64624 c 11.729221,20.08832 10.817301,18.56931 22.829251,0 l 5.00619,-7.73923 5.00621,7.73923 c 11.72964,20.08819 10.81766,18.56943 22.8297,0 l 5.0062,-7.73923 5.00618,7.73923 c 11.72964,20.08805 10.81759,18.56959 22.82926,0 l 11.41486,-17.64624 V 71.017348 c 0,-27.324405 -27.83114,-41.959612 -55.66451,-42.446098 z" /><g
                   id="g6"
                   transform="matrix(0.7039212,0,0,0.7039212,38.689356,26.816136)"
                   style="fill:#000000;fill-opacity:1;stroke:#000000;stroke-width:15.9528;stroke-dasharray:none;stroke-opacity:1"><circle
                     style="fill:#000000;fill-opacity:1;stroke:#000000;stroke-width:15.9528;stroke-linecap:round;stroke-linejoin:round;stroke-dasharray:none;stroke-opacity:1"
                     id="path6"
                     cx="108.30572"
                     cy="98.658394"
                     r="7.283793" /><circle
                     style="fill:#000000;fill-opacity:1;stroke:#000000;stroke-width:15.9528;stroke-linecap:round;stroke-linejoin:round;stroke-dasharray:none;stroke-opacity:1"
                     id="circle6"
                     cx="166.6606"
                     cy="98.65815"
                     r="7.283793" /></g></g></g></g></g></g></g></g></svg>
